<?xml version="1.0" standalone="no"?>
<!DOCTYPE svg PUBLIC "-//W3C//DTD SVG 20010904//EN"
 "http://www.w3.org/TR/2001/REC-SVG-20010904/DTD/svg10.dtd">
<svg version="1.0" xmlns="http://www.w3.org/2000/svg"
 width="700.000000pt" height="700.000000pt" viewBox="0 0 700.000000 700.000000"
 preserveAspectRatio="xMidYMid meet">
<metadata>
Created by potrace 1.11, written by Peter Selinger 2001-2013
</metadata>
<g transform="translate(0.000000,700.000000) scale(0.100000,-0.100000)"
fill="#000000" stroke="none">
<path d="M10 3480 l0 -3480 3495 0 3495 0 0 3480 0 3480 -3495 0 -3495 0 0
-3480z m2110 1645 l0 -35 74 0 75 0 3 -37 3 -38 78 -3 77 -3 0 -74 0 -75 35 0
35 0 0 -75 0 -75 40 0 40 0 0 -225 0 -225 -40 0 -40 0 0 -75 0 -75 -35 0 -35
0 0 -74 0 -75 -37 -3 c-36 -3 -38 -5 -41 -40 l-3 -38 -75 0 -74 0 0 -40 0 -40
-265 0 -265 0 0 40 0 40 -74 0 -75 0 -3 38 c-3 35 -5 37 -40 40 l-38 3 0 75 0
74 -35 0 -35 0 0 75 0 75 -40 0 -40 0 0 225 0 225 40 0 40 0 0 75 0 75 35 0
35 0 0 75 0 75 40 0 40 0 0 40 0 40 115 0 115 0 0 35 0 35 185 0 185 0 0 -35z
m1820 0 l0 -35 75 0 75 0 0 -74 0 -75 38 -3 37 -3 3 -187 2 -188 -40 0 -40 0
0 -40 0 -40 -40 0 c-39 0 -40 -1 -40 -35 l0 -35 -300 0 -300 0 0 -305 0 -305
-75 0 -75 0 0 680 0 680 340 0 340 0 0 -35z m1210 -40 l0 -75 35 0 34 0 3 -72
3 -73 38 -3 c35 -3 37 -5 37 -37 0 -32 2 -34 38 -37 l37 -3 3 -77 3 -78 34 0
35 0 0 -75 0 -75 40 0 c39 0 40 -1 40 -35 0 -33 2 -35 35 -35 l35 0 0 -75 0
-75 40 0 40 0 0 -81 0 -80 38 3 37 3 3 528 2 527 75 0 75 0 -2 -677 -3 -678
-112 -3 -112 -3 -3 78 -3 78 -37 3 -38 3 0 75 0 74 -35 0 c-33 0 -35 2 -35 35
0 34 -1 35 -40 35 l-40 0 0 75 0 75 -35 0 -35 0 0 74 0 75 -37 3 c-36 3 -38 5
-41 41 -3 35 -5 37 -38 37 l-34 0 0 75 0 75 -40 0 -40 0 0 75 0 75 -40 0 -40
0 0 -530 0 -531 -72 3 -73 3 -3 678 -2 677 115 0 115 0 0 -75z m-3028 -2152
l3 -38 73 -3 72 -3 0 -34 c0 -34 1 -35 40 -35 l40 0 0 -190 0 -190 -40 0 c-39
0 -40 -1 -40 -35 0 -33 -2 -35 -35 -35 -34 0 -35 -1 -35 -40 0 -39 1 -40 34
-40 33 0 35 -2 38 -37 3 -36 5 -38 41 -41 l37 -3 0 -265 0 -264 40 0 c39 0 40
-1 40 -35 l0 -35 -115 0 -115 0 0 265 0 265 -34 0 c-33 0 -35 2 -38 38 l-3 37
-302 3 -303 2 0 -305 0 -305 -75 0 -75 0 0 680 0 680 374 0 375 0 3 -37z
m1818 -38 l0 -75 -190 0 -190 0 0 -605 0 -605 -75 0 -75 0 0 605 0 605 -190 0
-190 0 0 75 0 75 455 0 455 0 0 -75z m910 0 l0 -75 35 0 c34 0 35 -1 35 -40
l0 -40 40 0 40 0 0 -75 0 -75 35 0 c33 0 35 -2 35 -35 l0 -35 80 0 80 0 0 35
c0 33 2 35 35 35 l35 0 0 75 0 75 40 0 40 0 0 75 0 75 35 0 c34 0 35 1 35 40
l0 40 115 0 115 0 0 -34 c0 -33 -2 -35 -37 -38 -36 -3 -38 -5 -41 -40 -3 -36
-5 -38 -38 -38 l-34 0 0 -75 0 -75 -40 0 -40 0 0 -40 c0 -39 -1 -40 -35 -40
l-35 0 0 -75 0 -75 -40 0 c-39 0 -40 -1 -40 -34 0 -33 -2 -35 -37 -38 -36 -3
-38 -5 -41 -40 l-3 -38 40 0 41 0 0 -74 0 -75 38 -3 c35 -3 37 -5 40 -40 3
-36 5 -38 38 -38 l34 0 0 -75 0 -75 40 0 40 0 0 -40 c0 -39 1 -40 35 -40 l34
0 3 -72 3 -73 38 -3 c35 -3 37 -5 37 -38 l0 -34 -115 0 -115 0 0 75 0 75 -35
0 c-34 0 -35 1 -35 40 l0 40 -40 0 -40 0 0 75 0 75 -35 0 -35 0 0 75 0 75 -80
0 -80 0 0 -75 0 -75 -35 0 c-34 0 -35 -1 -35 -40 l0 -40 -40 0 -40 0 0 -75 0
-75 -35 0 c-33 0 -35 -2 -35 -34 0 -33 -2 -35 -37 -38 -36 -3 -38 -5 -41 -40
l-3 -38 -75 0 -74 0 0 75 0 75 40 0 c39 0 40 1 40 35 0 33 2 35 35 35 l35 0 0
80 0 80 40 0 c39 0 40 1 40 35 0 33 2 35 35 35 l35 0 0 75 0 75 40 0 40 0 0
115 0 115 -40 0 -40 0 0 40 c0 39 -1 40 -35 40 l-35 0 0 75 0 75 -40 0 c-39 0
-40 1 -40 35 0 33 -2 35 -35 35 l-34 0 -3 78 -3 77 -37 3 c-36 3 -38 5 -38 38
l0 34 115 0 115 0 0 -75z"/>
<path d="M1750 4975 l0 -35 -74 0 -75 0 -3 -37 c-3 -36 -5 -38 -40 -41 l-38
-3 0 -75 0 -74 -40 0 -40 0 0 -225 0 -225 40 0 40 0 0 -74 0 -75 38 -3 c35 -3
37 -5 40 -40 l3 -38 75 0 74 0 0 -35 0 -35 185 0 185 0 0 35 0 35 74 0 75 0 3
38 c3 35 5 37 41 40 l37 3 0 75 0 74 40 0 40 0 0 225 0 225 -40 0 -40 0 0 75
0 75 -40 0 -40 0 0 40 0 40 -75 0 -75 0 0 35 0 35 -185 0 -185 0 0 -35z"/>
<path d="M3410 4785 l0 -225 265 0 265 0 0 40 c0 39 1 40 35 40 l35 0 0 150 0
150 -35 0 c-33 0 -35 2 -35 35 l0 35 -265 0 -265 0 0 -225z"/>
<path d="M1520 2595 l0 -225 300 0 300 0 0 35 c0 34 1 35 40 35 l40 0 0 150 0
150 -40 0 -40 0 0 40 0 40 -300 0 -300 0 0 -225z"/>
</g>
</svg>
