<?xml version="1.0" encoding="UTF-8" standalone="no"?>
<svg
   xmlns:dc="http://purl.org/dc/elements/1.1/"
   xmlns:cc="http://creativecommons.org/ns#"
   xmlns:rdf="http://www.w3.org/1999/02/22-rdf-syntax-ns#"
   xmlns:svg="http://www.w3.org/2000/svg"
   xmlns="http://www.w3.org/2000/svg"
   xmlns:sodipodi="http://sodipodi.sourceforge.net/DTD/sodipodi-0.dtd"
   xmlns:inkscape="http://www.inkscape.org/namespaces/inkscape"
   width="27.46344cm"
   height="10.041816cm"
   viewBox="0 0 274.6344 100.41816"
   version="1.1"
   id="svg8"
   inkscape:version="1.0.2 (e86c870879, 2021-01-15)"
   sodipodi:docname="m17_openrtx_logo.svg"
   inkscape:export-filename="C:\Users\SP5WWP\Documents\M17_logo_simple_400.png"
   inkscape:export-xdpi="399.95294"
   inkscape:export-ydpi="399.95294">
  <defs
     id="defs2">
    <rect
       x="121.10648"
       y="24.628609"
       width="104.80128"
       height="69.789757"
       id="rect158" />
  </defs>
  <sodipodi:namedview
     id="base"
     pagecolor="#ffffff"
     bordercolor="#666666"
     borderopacity="1.0"
     inkscape:pageopacity="0.0"
     inkscape:pageshadow="2"
     inkscape:zoom="0.9899495"
     inkscape:cx="520.51991"
     inkscape:cy="340.34073"
     inkscape:document-units="mm"
     inkscape:current-layer="layer1"
     showgrid="false"
     showguides="true"
     inkscape:guide-bbox="true"
     fit-margin-top="0"
     fit-margin-bottom="0"
     fit-margin-left="0"
     fit-margin-right="0"
     inkscape:window-width="1920"
     inkscape:window-height="1136"
     inkscape:window-x="0"
     inkscape:window-y="0"
     inkscape:window-maximized="1"
     inkscape:snap-global="true"
     inkscape:document-rotation="0"
     units="cm"
     borderlayer="true"
     inkscape:pagecheckerboard="true"
     inkscape:snap-midpoints="true"
     inkscape:object-paths="true"
     inkscape:snap-intersection-paths="true"
     inkscape:snap-smooth-nodes="true"
     inkscape:snap-object-midpoints="true"
     inkscape:snap-center="false"
     inkscape:snap-nodes="false">
    <sodipodi:guide
       position="198.63387,74.689838"
       orientation="0,-1"
       id="guide166" />
    <sodipodi:guide
       position="193.23059,23.906029"
       orientation="0,-1"
       id="guide168" />
  </sodipodi:namedview>
  <metadata
     id="metadata5">
    <rdf:RDF>
      <cc:Work
         rdf:about="">
        <dc:format>image/svg+xml</dc:format>
        <dc:type
           rdf:resource="http://purl.org/dc/dcmitype/StillImage" />
        <dc:title />
      </cc:Work>
    </rdf:RDF>
  </metadata>
  <g
     inkscape:label="Layer 1"
     inkscape:groupmode="layer"
     id="layer1"
     transform="translate(-66.611465,-88.427668)"
     style="opacity:1">
    <g
       id="g154"
       transform="translate(198.77709,-0.41488793)">
      <path
         id="rect98"
         style="fill:#000000;fill-opacity:0.997841;stroke:none;stroke-width:0.475706"
         d="m 82.003906,225.72852 v 12.25195 12.25391 h 16.337891 16.337893 v -2.04102 -2.04297 h 2.04297 2.04296 v -8.16992 -8.16797 h -2.04296 -2.04297 v -2.04297 -2.04101 H 98.341797 Z"
         transform="matrix(0.26458333,0,0,0.26458333,41.529203,88.339744)" />
      <path
         id="path54"
         style="fill:#fab413;fill-opacity:0.997841;stroke:none;stroke-width:0.475706"
         d="m 249.4668,217.55859 v 2.04297 2.04102 h 2.04297 2.04296 v 4.08594 4.08398 h 2.04102 2.04297 v 2.04297 2.04101 h 2.04297 2.04101 v 4.08399 4.08594 h 2.04297 2.04102 v 2.04101 2.04297 h 2.04297 2.04296 v 6.12695 6.12696 h -2.04296 -2.04297 v 4.08398 4.08399 h -2.04102 -2.04297 v 2.04296 2.04102 h -2.04101 -2.04297 v 4.08594 4.08398 h -2.04297 -2.04102 v 2.04297 2.04102 h -2.04296 -2.04297 v 4.08398 4.08594 h 4.08593 4.08399 v -2.04297 -2.04297 h 2.04297 2.04101 v -2.04102 -2.04296 h 2.04297 2.04102 v -4.08399 -4.08398 h 2.04297 2.04296 v -2.04297 -2.04297 h 2.04102 2.04297 v -4.08398 -4.08399 h 4.08398 4.08399 v 4.08399 4.08398 h 2.04297 2.04297 v 4.08594 4.08398 h 2.04101 2.04297 v 2.04297 2.04102 h 2.04297 2.04101 v 4.08398 4.08594 h 6.12696 6.12695 v -2.04297 -2.04297 h -2.04297 -2.04101 v -4.08398 -4.08399 h -2.04297 -2.04297 v -2.04297 -2.04101 h -2.04102 -2.04297 v -4.08594 -4.08398 h -2.04101 -2.04297 v -2.04102 -2.04297 h -2.04297 -2.04101 v -4.08398 -4.08594 h -2.04297 -2.04297 v -2.04102 -2.04296 h 2.04297 2.04297 v -2.04102 -2.04297 h 2.04101 2.04297 v -4.08398 -4.08594 h 2.04297 2.04101 v -2.04102 -2.04297 h 2.04297 2.04102 v -4.08398 -4.08398 h 2.04297 2.04297 v -2.04297 -2.04297 h 2.04101 2.04297 v -2.04102 -2.04297 h -6.12695 -6.12696 v 2.04297 2.04102 h -2.04101 -2.04297 v 4.08594 4.08398 h -2.04297 -2.04101 v 4.08398 4.08399 h -2.04297 -2.04297 v 2.04297 2.04297 h -4.08399 -4.08398 v -2.04297 -2.04297 h -2.04297 -2.04102 v -4.08399 -4.08398 h -2.04296 -2.04297 v -2.04297 -2.04101 h -2.04102 -2.04297 v -4.08594 -4.08399 h -6.12695 z"
         transform="matrix(0.26458333,0,0,0.26458333,41.529203,88.339744)" />
      <path
         id="path52"
         style="fill:#fab413;fill-opacity:0.997841;stroke:none;stroke-width:0.475706"
         d="m 163.69336,217.55859 v 4.08399 4.08594 h 10.21094 10.21289 v 32.67578 32.67578 h 4.08398 4.08399 V 258.4043 225.72852 h 10.21093 10.21094 v -4.08594 -4.08399 h -24.50586 z"
         transform="matrix(0.26458333,0,0,0.26458333,41.529203,88.339744)" />
      <path
         id="path50"
         style="fill:#fab413;fill-opacity:0.997841;stroke:none;stroke-width:0.475706"
         d="m 73.835938,217.55859 v 36.75977 36.76172 h 4.083984 4.083984 V 274.74219 258.4043 h 16.337891 16.337893 v 2.04101 2.04297 h 2.04297 2.04296 v 14.29492 14.29688 h 6.125 6.12696 v -2.04297 -2.04297 h -2.04102 -2.04297 V 272.69922 258.4043 h -2.04297 -2.04101 v -2.04297 -2.04297 h -2.04297 -2.04102 v -2.04102 -2.04296 h 2.04102 2.04297 v -2.04102 -2.04297 h 2.04101 2.04297 v -10.21094 -10.21093 h -2.04297 -2.04101 v -2.04297 -2.04297 h -4.08399 -4.08593 v -2.04102 -2.04297 H 94.257812 Z m 8.167968,8.16993 h 16.337891 16.337893 v 2.04101 2.04297 h 2.04297 2.04296 v 8.16797 8.16992 h -2.04296 -2.04297 v 2.04297 2.04102 H 98.341797 82.003906 v -12.25391 z"
         transform="matrix(0.26458333,0,0,0.26458333,41.529203,88.339744)" />
      <path
         id="path48"
         style="fill:#000000;fill-opacity:0.997841;stroke:none;stroke-width:0.475706"
         d="m 184.11719,107.2793 v 12.25195 12.25391 h 14.29492 14.29492 v -2.04297 -2.04102 h 2.04297 2.04297 v -8.16992 -8.16797 H 214.75 212.70703 v -2.04297 -2.04101 h -14.29492 z"
         transform="matrix(0.26458333,0,0,0.26458333,41.529203,88.339744)" />
      <path
         id="path46"
         style="fill:#000000;fill-opacity:0.997841;stroke:none;stroke-width:0.475706"
         d="m 94.257812,107.2793 v 2.04101 2.04297 h -4.083984 -4.083984 v 2.04102 2.04297 h -2.042969 -2.042969 v 4.08398 4.08594 h -2.041015 -2.042969 v 12.25195 12.25391 h 2.042969 2.041015 v 4.08398 4.08594 h 2.042969 2.042969 v 2.04101 2.04297 h 4.083984 4.083984 v 2.04102 2.04297 h 10.210938 10.21094 v -2.04297 -2.04102 h 4.08593 4.08399 v -2.04297 -2.04101 h 2.04101 2.04297 v -4.08594 -4.08398 h 2.04297 2.04102 v -12.25391 -12.25195 h -2.04102 -2.04297 v -4.08594 -4.08398 h -2.04297 -2.04101 v -2.04297 -2.04102 h -4.08399 -4.08593 v -2.04297 -2.04101 h -10.21094 z"
         transform="matrix(0.26458333,0,0,0.26458333,41.529203,88.339744)" />
      <path
         id="path44"
         style="fill:#fab413;fill-opacity:0.997841;stroke:none;stroke-width:0.475706"
         d="m 265.80469,99.109375 v 36.759765 36.75977 h 4.08593 4.08399 v -28.58985 -28.59179 h 2.04297 2.04101 v 4.08398 4.08594 h 2.04297 2.04102 v 4.08398 4.08399 h 2.04297 2.04297 v 2.04296 2.04102 h 2.04101 2.04297 v 4.08594 4.08398 h 2.04297 2.04101 v 4.08399 4.08398 h 2.04297 2.04102 v 2.04297 2.04297 h 2.04297 2.04297 v 4.08398 4.08399 h 2.04101 2.04297 v 4.08398 4.08399 h 6.12695 6.12696 V 135.86914 99.109375 h -4.08594 -4.08398 v 28.591795 28.5918 h -2.04102 -2.04297 v -4.08594 -4.08398 h -2.04297 -2.04101 v -4.08399 -4.08398 h -2.04297 -2.04297 v -2.04297 -2.04297 h -2.04102 -2.04297 v -4.08398 -4.08399 h -2.04101 -2.04297 v -4.08398 -4.08594 h -2.04297 -2.04101 v -2.04102 -2.04296 h -2.04297 -2.04297 v -4.08399 -4.08398 h -2.04102 -2.04297 v -4.08594 -4.083985 h -6.12695 z"
         transform="matrix(0.26458333,0,0,0.26458333,41.529203,88.339744)" />
      <path
         id="path42"
         style="fill:#fab413;fill-opacity:0.997841;stroke:none;stroke-width:0.475706"
         d="m 175.94727,99.109375 v 36.759765 36.75977 h 4.08398 4.08594 v -16.33594 -16.33789 h 16.33789 16.33789 v -2.04297 -2.04297 h 2.04101 2.04297 v -2.04102 -2.04296 h 2.04102 2.04297 v -10.21094 -10.21094 h -2.04297 -2.04102 v -4.08398 -4.08594 h -4.08398 -4.08594 v -2.04102 -2.042965 h -18.37891 z m 8.16992,8.169925 h 14.29492 14.29492 v 2.04101 2.04297 h 2.04297 2.04297 v 8.16797 8.16992 H 214.75 212.70703 v 2.04102 2.04297 h -14.29492 -14.29492 v -12.25391 z"
         transform="matrix(0.26458333,0,0,0.26458333,41.529203,88.339744)" />
      <path
         id="path40"
         style="fill:#fab413;fill-opacity:0.997841;stroke:none;stroke-width:0.475706"
         d="m 94.257812,99.109375 v 2.042965 2.04102 h -6.126953 -6.126953 v 2.04297 2.04297 h -2.041015 -2.042969 v 4.08398 4.08399 h -2.042969 -2.041015 v 4.08398 4.08594 h -2.042969 -2.041016 v 12.25195 12.25391 h 2.041016 2.042969 v 4.08398 4.08594 h 2.041015 2.042969 v 4.08398 4.08399 h 2.042969 2.041015 v 2.04297 2.04101 h 4.085938 4.083984 v 2.04297 2.04102 h 14.294922 14.29687 v -2.04102 -2.04297 h 4.08399 4.08398 v -2.04101 -2.04297 h 2.04297 2.04102 v -4.08399 -4.08398 h 2.04297 2.04297 v -4.08594 -4.08398 h 2.04101 2.04297 v -12.25391 -12.25195 h -2.04297 -2.04101 v -4.08594 -4.08398 h -2.04297 -2.04297 v -4.08399 -4.08398 h -4.08399 -4.08398 v -2.04297 -2.04297 h -4.08399 -4.08593 v -2.04102 -2.042965 h -10.21094 z m 0,8.169925 h 10.210938 10.21094 v 2.04101 2.04297 h 4.08593 4.08399 v 2.04102 2.04297 h 2.04101 2.04297 v 4.08398 4.08594 h 2.04297 2.04102 v 12.25195 12.25391 h -2.04102 -2.04297 v 4.08398 4.08594 h -2.04297 -2.04101 v 2.04101 2.04297 h -4.08399 -4.08593 v 2.04102 2.04297 H 104.46875 94.257812 v -2.04297 -2.04102 h -4.083984 -4.083984 v -2.04297 -2.04101 h -2.042969 -2.042969 v -4.08594 -4.08398 h -2.041015 -2.042969 v -12.25391 -12.25195 h 2.042969 2.041015 v -4.08594 -4.08398 h 2.042969 2.042969 v -2.04297 -2.04102 h 4.083984 4.083984 v -2.04297 z"
         transform="matrix(0.26458333,0,0,0.26458333,41.529203,88.339744)" />
      <path
         id="path38"
         style="fill:#000000;fill-opacity:0.997841;stroke:none;stroke-width:0.475706"
         d="M 0.41015625,1.9003906 V 381.43359 H 381.50391 V 1.9003906 Z M 94.257812,99.109375 h 10.210938 10.21094 v 2.042965 2.04102 h 4.08593 4.08399 v 2.04297 2.04297 h 4.08398 4.08399 v 4.08398 4.08399 h 2.04297 2.04297 v 4.08398 4.08594 h 2.04101 2.04297 v 12.25195 12.25391 h -2.04297 -2.04101 v 4.08398 4.08594 h -2.04297 -2.04297 v 4.08398 4.08399 h -2.04102 -2.04297 v 2.04297 2.04101 h -4.08398 -4.08399 v 2.04297 2.04102 H 104.46875 90.173828 v -2.04102 -2.04297 h -4.083984 -4.085938 v -2.04101 -2.04297 h -2.041015 -2.042969 v -4.08399 -4.08398 h -2.042969 -2.041015 v -4.08594 -4.08398 h -2.042969 -2.041016 v -12.25391 -12.25195 h 2.041016 2.042969 v -4.08594 -4.08398 h 2.041015 2.042969 v -4.08399 -4.08398 h 2.042969 2.041015 v -2.04297 -2.04297 h 6.126953 6.126953 v -2.04102 z m 81.689458,0 h 18.38085 18.37891 v 2.042965 2.04102 h 4.08594 4.08398 v 4.08594 4.08398 h 2.04102 2.04297 v 10.21094 10.21094 h -2.04297 -2.04102 v 2.04296 2.04102 h -2.04297 -2.04101 v 2.04297 2.04297 h -16.33789 -16.33789 v 16.33789 16.33594 h -4.08594 -4.08398 v -36.75977 z m 89.85742,0 h 6.12695 6.12695 v 4.083985 4.08594 h 2.04297 2.04102 v 4.08398 4.08399 h 2.04297 2.04297 v 2.04296 2.04102 h 2.04101 2.04297 v 4.08594 4.08398 h 2.04297 2.04101 v 4.08399 4.08398 h 2.04297 2.04102 v 2.04297 2.04297 h 2.04297 2.04297 v 4.08398 4.08399 h 2.04101 2.04297 v 4.08398 4.08594 h 2.04297 2.04102 v -28.5918 -28.591795 h 4.08398 4.08594 v 36.759765 36.75977 h -6.12696 -6.12695 v -4.08399 -4.08398 h -2.04297 -2.04101 v -4.08399 -4.08398 h -2.04297 -2.04297 V 154.25 152.20703 h -2.04102 -2.04297 v -4.08398 -4.08399 h -2.04101 -2.04297 v -4.08398 -4.08594 h -2.04297 -2.04101 v -2.04102 -2.04296 h -2.04297 -2.04297 v -4.08399 -4.08398 h -2.04102 -2.04297 v -4.08594 -4.08398 h -2.04101 -2.04297 v 28.59179 28.58985 h -4.08399 -4.08593 V 135.86914 Z M 73.835938,217.55859 h 20.421874 20.421878 v 2.04297 2.04102 h 4.08593 4.08399 v 2.04297 2.04297 h 2.04101 2.04297 v 10.21093 10.21094 h -2.04297 -2.04101 v 2.04297 2.04102 h -2.04297 -2.04102 v 2.04296 2.04102 h 2.04102 2.04297 v 2.04297 2.04297 h 2.04101 2.04297 v 14.29492 14.29492 h 2.04297 2.04102 v 2.04297 2.04297 h -6.12696 -6.125 V 276.7832 262.48828 h -2.04296 -2.04297 v -2.04297 -2.04101 H 98.341797 82.003906 v 16.33789 16.33789 h -4.083984 -4.083984 v -36.76172 z m 89.857422,0 h 24.50781 24.50586 v 4.08399 4.08594 h -10.21094 -10.21093 v 32.67578 32.67578 h -4.08399 -4.08398 V 258.4043 225.72852 H 173.9043 163.69336 v -4.08594 z m 85.77344,0 h 6.12695 6.12695 v 4.08399 4.08594 h 2.04297 2.04102 v 2.04101 2.04297 h 2.04297 2.04296 v 4.08398 4.08399 h 2.04102 2.04297 v 2.04297 2.04297 h 4.08398 4.08399 v -2.04297 -2.04297 h 2.04297 2.04297 v -4.08399 -4.08398 h 2.04101 2.04297 v -4.08398 -4.08594 h 2.04297 2.04101 v -2.04102 -2.04297 h 6.12696 6.12695 v 2.04297 2.04102 h -2.04297 -2.04101 v 2.04297 2.04297 h -2.04297 -2.04297 v 4.08398 4.08398 h -2.04102 -2.04297 v 2.04297 2.04102 h -2.04101 -2.04297 v 4.08594 4.08398 h -2.04297 -2.04101 v 2.04297 2.04102 h -2.04297 -2.04297 v 2.04296 2.04102 h 2.04297 2.04297 v 4.08594 4.08398 h 2.04101 2.04297 v 2.04297 2.04102 h 2.04297 2.04101 v 4.08398 4.08594 h 2.04297 2.04102 v 2.04101 2.04297 h 2.04297 2.04297 v 4.08399 4.08398 h 2.04101 2.04297 v 2.04297 2.04297 h -6.12695 -6.12696 v -4.08594 -4.08398 h -2.04101 -2.04297 v -2.04102 -2.04297 h -2.04297 -2.04101 v -4.08398 -4.08594 h -2.04297 -2.04297 v -4.08398 -4.08399 h -4.08399 -4.08398 v 4.08399 4.08398 h -2.04297 -2.04102 v 2.04297 2.04297 h -2.04296 -2.04297 v 4.08398 4.08399 h -2.04102 -2.04297 v 2.04296 2.04102 h -2.04101 -2.04297 v 2.04297 2.04297 h -4.08399 -4.08593 v -4.08594 -4.08398 h 2.04297 2.04296 v -2.04102 -2.04297 h 2.04102 2.04297 v -4.08398 -4.08594 h 2.04297 2.04101 v -2.04102 -2.04296 h 2.04297 2.04102 v -4.08399 -4.08398 h 2.04297 2.04296 v -6.12696 -6.12695 h -2.04296 -2.04297 v -2.04297 -2.04101 h -2.04102 -2.04297 v -4.08594 -4.08399 h -2.04101 -2.04297 v -2.04101 -2.04297 h -2.04297 -2.04102 v -4.08398 -4.08594 h -2.04296 -2.04297 v -2.04102 z"
         transform="matrix(0.26458333,0,0,0.26458333,41.529203,88.339744)" />
    </g>
    <g
       inkscape:label="Layer 1"
       id="layer1-6"
       transform="matrix(0.77155305,0,0,0.77155305,26.853951,27.732892)">
      <path
         style="fill:none;stroke:#999999;stroke-width:10;stroke-linecap:butt;stroke-linejoin:miter;stroke-miterlimit:4;stroke-dasharray:none;stroke-opacity:1"
         d="m 57.857748,178.73185 34.641012,-60 v 60 l 34.64101,-60 v 60"
         id="path879-0"
         inkscape:connector-curvature="0" />
      <path
         style="fill:none;stroke:#999999;stroke-width:10;stroke-linecap:butt;stroke-linejoin:miter;stroke-miterlimit:4;stroke-dasharray:none;stroke-opacity:1"
         d="m 161.78079,178.73185 v -60 l -17.2733,29.91823"
         id="path821-2"
         inkscape:connector-curvature="0" />
      <path
         style="fill:none;stroke:#999999;stroke-width:10;stroke-linecap:butt;stroke-linejoin:miter;stroke-miterlimit:4;stroke-dasharray:none;stroke-opacity:1"
         d="m 179.73264,178.73185 34.64102,-60 h -33.97049"
         id="path825-1"
         inkscape:connector-curvature="0" />
      <path
         style="fill:none;stroke:#000000;stroke-width:10;stroke-linecap:butt;stroke-linejoin:miter;stroke-miterlimit:4;stroke-dasharray:none;stroke-opacity:1"
         d="m 55.85933,177 34.641017,-60 v 60 l 34.641013,-60 v 60"
         id="path879"
         inkscape:connector-curvature="0" />
      <path
         style="fill:none;stroke:#ff0000;stroke-width:10;stroke-linecap:butt;stroke-linejoin:miter;stroke-miterlimit:4;stroke-dasharray:none;stroke-opacity:1"
         d="m 159.78238,177 v -60 l -17.2733,29.91823"
         id="path821"
         inkscape:connector-curvature="0" />
      <path
         style="fill:none;stroke:#ff0000;stroke-width:10;stroke-linecap:butt;stroke-linejoin:miter;stroke-miterlimit:4;stroke-dasharray:none;stroke-opacity:1"
         d="m 177.73423,177 34.64102,-60 h -33.97049"
         id="path825"
         inkscape:connector-curvature="0" />
    </g>
    <g
       aria-label="+"
       transform="translate(72.28647,84.669619)"
       id="text156"
       style="font-style:normal;font-weight:normal;font-size:50.8px;line-height:1.25;font-family:sans-serif;white-space:pre;shape-inside:url(#rect158);fill:#c8c8c8;fill-opacity:1;stroke:none">
      <path
         d="m 144.47344,37.725781 v 13.816211 h 13.81621 v 4.216797 h -13.81621 v 13.81621 h -4.16719 v -13.81621 h -13.81621 v -4.216797 h 13.81621 V 37.725781 Z"
         style="shape-inside:url(#rect158)"
         id="path856" />
    </g>
  </g>
</svg>
