<?xml version="1.0" encoding="UTF-8" standalone="no"?>
<svg
   xmlns:dc="http://purl.org/dc/elements/1.1/"
   xmlns:cc="http://creativecommons.org/ns#"
   xmlns:rdf="http://www.w3.org/1999/02/22-rdf-syntax-ns#"
   xmlns:svg="http://www.w3.org/2000/svg"
   xmlns="http://www.w3.org/2000/svg"
   xmlns:sodipodi="http://sodipodi.sourceforge.net/DTD/sodipodi-0.dtd"
   xmlns:inkscape="http://www.inkscape.org/namespaces/inkscape"
   width="10cm"
   height="10cm"
   viewBox="0 0 100 100"
   version="1.1"
   id="svg8"
   inkscape:version="1.0.2 (e86c870879, 2021-01-15)"
   sodipodi:docname="openrtx_logo.svg"
   inkscape:export-filename="C:\Users\SP5WWP\Documents\M17_logo_simple_400.png"
   inkscape:export-xdpi="399.95294"
   inkscape:export-ydpi="399.95294">
  <defs
     id="defs2" />
  <sodipodi:namedview
     id="base"
     pagecolor="#ffffff"
     bordercolor="#666666"
     borderopacity="1.0"
     inkscape:pageopacity="0.0"
     inkscape:pageshadow="2"
     inkscape:zoom="0.49497475"
     inkscape:cx="634.22664"
     inkscape:cy="589.32906"
     inkscape:document-units="mm"
     inkscape:current-layer="layer1"
     showgrid="false"
     showguides="false"
     inkscape:guide-bbox="true"
     fit-margin-top="10"
     fit-margin-bottom="10"
     fit-margin-left="10"
     fit-margin-right="10"
     inkscape:window-width="1920"
     inkscape:window-height="1136"
     inkscape:window-x="0"
     inkscape:window-y="0"
     inkscape:window-maximized="1"
     inkscape:snap-global="true"
     inkscape:document-rotation="0"
     units="cm"
     borderlayer="true"
     inkscape:pagecheckerboard="true">
    <sodipodi:guide
       position="70.590358,88.660254"
       orientation="0,1"
       id="guide10"
       inkscape:locked="false"
       inkscape:label=""
       inkscape:color="rgb(0,0,255)" />
    <sodipodi:guide
       position="73.129418,28.660253"
       orientation="0,1"
       id="guide12"
       inkscape:locked="false"
       inkscape:label=""
       inkscape:color="rgb(0,0,255)" />
  </sodipodi:namedview>
  <metadata
     id="metadata5">
    <rdf:RDF>
      <cc:Work
         rdf:about="">
        <dc:format>image/svg+xml</dc:format>
        <dc:type
           rdf:resource="http://purl.org/dc/dcmitype/StillImage" />
        <dc:title></dc:title>
      </cc:Work>
    </rdf:RDF>
  </metadata>
  <g
     inkscape:label="Layer 1"
     inkscape:groupmode="layer"
     id="layer1"
     transform="translate(-41.529203,-88.339744)"
     style="opacity:1">
    <rect
       style="fill:#fab413;fill-opacity:0.997841;stroke:#ff0000;stroke-width:0.125864"
       id="rect98"
       width="100.83112"
       height="100.41813"
       x="41.637821"
       y="88.842422" />
    <path
       style="fill:#000000;stroke-width:0.360227"
       d="M 8.1114612,139.23803 V 69.534047 H 94.566028 181.02057 v 69.703983 69.704 H 94.566028 8.1114612 Z M 63.22625,161.03178 v -4.32273 h 4.32273 4.322725 v 0.54035 0.54035 h 0.540339 0.540342 v 3.78237 3.7824 h 1.621028 1.621022 v -0.54034 -0.54035 h -0.540342 -0.540339 v -3.78238 -3.7824 h -0.540341 -0.540343 v -0.54033 -0.54034 h -0.540337 -0.540348 v -0.54035 -0.54033 h 0.540348 0.540337 v -0.54035 -0.54035 h 0.540343 0.540341 v -2.7017 -2.70169 h -0.540341 -0.540343 v -0.54036 -0.54032 h -1.080685 -1.080681 v -0.54035 -0.54035 H 66.46829 61.06488 v 9.72615 9.72614 h 1.080685 1.080685 z m 0,-9.72613 v -3.24204 h 4.32273 4.322725 v 0.54034 0.54033 h 0.540339 0.540342 v 2.16137 2.16135 h -0.540342 -0.540339 v 0.54035 0.54035 H 67.54898 63.22625 Z m 29.178417,5.4034 v -8.64544 h 2.701702 2.701708 v -1.08068 -1.0807 h -6.48409 -6.484096 v 1.0807 1.08068 h 2.701703 2.701708 v 8.64544 8.64547 h 1.080685 1.08068 z m 17.290893,8.10513 v -0.54035 h 0.54035 0.54033 v -0.54033 -0.54035 h 0.54034 0.54036 v -1.08067 -1.0807 h 0.54033 0.54034 v -0.54033 -0.54035 h 0.54034 0.54035 v -1.08067 -1.08068 h 1.08067 1.08069 v 1.08068 1.08067 h 0.54033 0.54034 v 1.08068 1.0807 h 0.54035 0.54034 v 0.54032 0.54035 h 0.54034 0.54035 v 1.08068 1.08069 h 1.62102 1.62101 v -0.54034 -0.54035 h -0.54033 -0.54034 v -1.08068 -1.08067 h -0.54034 -0.54034 v -0.54036 -0.54034 h -0.54035 -0.54033 v -1.08068 -1.08067 h -0.54035 -0.54034 v -0.54035 -0.54033 h -0.54034 -0.54035 v -1.0807 -1.08067 h -0.54034 -0.54033 v -0.54035 -0.54033 h 0.54033 0.54034 v -0.54035 -0.54035 h 0.54035 0.54034 v -1.08067 -1.08068 h 0.54034 0.54035 v -0.54035 -0.54035 h 0.54033 0.54035 v -1.08067 -1.08067 h 0.54034 0.54034 v -0.54036 -0.54032 h 0.54034 0.54033 v -0.54035 -0.54035 h -1.62101 -1.62102 v 0.54035 0.54035 h -0.54035 -0.54034 v 1.08068 1.08067 h -0.54034 -0.54035 v 1.08067 1.0807 h -0.54034 -0.54033 v 0.54033 0.54035 h -1.08069 -1.08067 v -0.54035 -0.54033 h -0.54035 -0.54034 v -1.0807 -1.08067 h -0.54034 -0.54033 v -0.54033 -0.54034 h -0.54036 -0.54034 v -1.08068 -1.0807 h -1.62102 -1.62102 v 0.54035 0.54035 h 0.54035 0.54033 v 1.08068 1.08067 h 0.54034 0.54034 v 0.54035 0.54032 h 0.54035 0.54033 v 1.0807 1.08068 h 0.54034 0.54036 v 0.54035 0.54032 h 0.54033 0.54034 v 1.62103 1.62102 h -0.54034 -0.54033 v 1.0807 1.08068 h -0.54036 -0.54034 v 0.54033 0.54034 h -0.54033 -0.54035 v 1.08068 1.0807 h -0.54034 -0.54034 v 0.54032 0.54035 h -0.54033 -0.54035 v 1.08068 1.08069 h 1.08068 1.08068 z m -36.743174,-31.3398 v -0.54032 h 1.080685 1.080684 v -0.54036 -0.54034 h 0.540339 0.540342 v -1.08068 -1.08067 h 0.540338 0.540342 v -1.08068 -1.0807 h 0.540342 0.540338 v -3.24205 -3.24203 h -0.540338 -0.540342 v -1.08069 -1.08067 h -0.540342 -0.540338 v -1.08068 -1.0807 h -1.080681 -1.080684 v -0.54033 -0.54034 h -1.080685 -1.080681 v -0.54035 -0.54033 H 69.170002 66.46829 v 0.54033 0.54035 H 64.847272 63.22625 v 0.54034 0.54033 h -0.540348 -0.540337 v 1.0807 1.08068 H 61.605223 61.06488 v 1.08067 1.08069 h -0.540337 -0.540342 v 3.24203 3.24205 h 0.540342 0.540337 v 1.0807 1.08068 h 0.540343 0.540342 v 1.08067 1.08068 h 0.540337 0.540348 v 0.54034 0.54036 h 1.080679 1.080681 v 0.54032 0.54035 h 3.782392 3.782384 z m -6.484096,-2.16135 v -0.54035 h -1.08068 -1.080681 v -0.54034 -0.54033 H 63.766583 63.22625 v -1.08068 -1.0807 h -0.540348 -0.540337 v -3.24205 -3.24203 h 0.540337 0.540348 v -1.08069 -1.08067 h 0.540333 0.540346 v -0.54035 -0.54033 h 1.080681 1.08068 v -0.54035 -0.54035 h 2.701712 2.701703 v 0.54035 0.54035 h 1.080681 1.080685 v 0.54033 0.54035 h 0.540343 0.540341 v 1.08067 1.08069 h 0.540339 0.540342 v 3.24203 3.24205 h -0.540342 -0.540339 v 1.0807 1.08068 h -0.540341 -0.540343 v 0.54033 0.54034 h -1.080685 -1.080681 v 0.54035 0.54033 H 69.170002 66.46829 Z m 23.775012,-1.62102 v -4.32272 h 4.322726 4.322731 v -0.54036 -0.54035 h 0.540337 0.540337 v -0.54032 -0.54035 h 0.540337 0.54034 v -2.7017 -2.7017 h -0.54034 -0.540337 v -1.0807 -1.08067 h -1.080674 -1.080682 v -0.54035 -0.54033 h -4.863069 -4.863071 v 9.72612 9.72615 h 1.080684 1.080681 z m 0,-9.72615 v -3.24205 h 3.782387 3.782388 v 0.54035 0.54035 h 0.540342 0.54034 v 2.16135 2.16137 h -0.54034 -0.540342 v 0.54033 0.54035 h -3.782388 -3.782387 z m 23.774998,6.4841 v -7.56477 h 0.54033 0.54034 v 1.08067 1.08069 h 0.54035 0.54034 v 1.08068 1.08068 h 0.54033 0.54034 v 0.54035 0.54032 h 0.54035 0.54034 v 1.08071 1.08067 h 0.54034 0.54035 v 1.08067 1.0807 h 0.54033 0.54035 v 0.54033 0.54035 h 0.54034 0.54034 v 1.08067 1.08068 h 0.54034 0.54033 v 1.0807 1.08067 h 1.62103 1.62102 v -9.72615 -9.72612 h -1.08067 -1.08069 v 7.56477 7.56478 h -0.54034 -0.54035 v -1.08068 -1.0807 h -0.54033 -0.54034 v -1.08067 -1.08067 h -0.54034 -0.54034 v -0.54036 -0.54035 h -0.54035 -0.54033 v -1.08067 -1.08068 h -0.54035 -0.54034 v -1.08068 -1.08069 h -0.54034 -0.54035 v -0.54032 -0.54035 h -0.54034 -0.54033 v -1.08068 -1.0807 h -0.54034 -0.54035 v -1.08067 -1.08068 h -1.62102 -1.62101 v 9.72612 9.72615 h 1.08067 1.08069 z"
       id="path96" />
  </g>
</svg>
