<?xml version="1.0" encoding="UTF-8" standalone="no"?>
<svg
   width="10cm"
   height="10cm"
   viewBox="0 0 100 100"
   version="1.1"
   id="svg8"
   inkscape:version="1.2 (dc2aedaf03, 2022-05-15)"
   sodipodi:docname="openrtx_logo.svg"
   inkscape:export-filename="C:\Users\SP5WWP\Documents\M17_logo_simple_400.png"
   inkscape:export-xdpi="399.95294"
   inkscape:export-ydpi="399.95294"
   xmlns:inkscape="http://www.inkscape.org/namespaces/inkscape"
   xmlns:sodipodi="http://sodipodi.sourceforge.net/DTD/sodipodi-0.dtd"
   xmlns="http://www.w3.org/2000/svg"
   xmlns:svg="http://www.w3.org/2000/svg"
   xmlns:rdf="http://www.w3.org/1999/02/22-rdf-syntax-ns#"
   xmlns:cc="http://creativecommons.org/ns#"
   xmlns:dc="http://purl.org/dc/elements/1.1/">
  <defs
     id="defs2" />
  <sodipodi:namedview
     id="base"
     pagecolor="#ffffff"
     bordercolor="#666666"
     borderopacity="1.0"
     inkscape:pageopacity="0.0"
     inkscape:pageshadow="2"
     inkscape:zoom="1.4142136"
     inkscape:cx="33.587572"
     inkscape:cy="206.82873"
     inkscape:document-units="mm"
     inkscape:current-layer="layer2"
     showgrid="false"
     showguides="false"
     inkscape:guide-bbox="true"
     fit-margin-top="10"
     fit-margin-bottom="10"
     fit-margin-left="10"
     fit-margin-right="10"
     inkscape:window-width="1920"
     inkscape:window-height="1007"
     inkscape:window-x="0"
     inkscape:window-y="0"
     inkscape:window-maximized="1"
     inkscape:snap-global="true"
     inkscape:document-rotation="0"
     units="cm"
     borderlayer="true"
     inkscape:pagecheckerboard="true"
     inkscape:showpageshadow="2"
     inkscape:deskcolor="#d1d1d1">
    <sodipodi:guide
       position="70.590358,88.660254"
       orientation="0,1"
       id="guide10"
       inkscape:locked="false"
       inkscape:label=""
       inkscape:color="rgb(0,0,255)" />
    <sodipodi:guide
       position="73.129418,28.660253"
       orientation="0,1"
       id="guide12"
       inkscape:locked="false"
       inkscape:label=""
       inkscape:color="rgb(0,0,255)" />
  </sodipodi:namedview>
  <metadata
     id="metadata5">
    <rdf:RDF>
      <cc:Work
         rdf:about="">
        <dc:format>image/svg+xml</dc:format>
        <dc:type
           rdf:resource="http://purl.org/dc/dcmitype/StillImage" />
        <dc:title />
      </cc:Work>
    </rdf:RDF>
  </metadata>
  <g
     inkscape:label="Layer 1"
     inkscape:groupmode="layer"
     id="layer1"
     transform="translate(-41.529203,-88.339744)"
     style="opacity:1">
    <rect
       style="fill:#000000;fill-opacity:1;stroke-width:0.264583"
       id="rect818"
       width="99.999359"
       height="99.998001"
       x="41.528778"
       y="88.340698" />
  </g>
  <g
     inkscape:groupmode="layer"
     id="layer2"
     inkscape:label="Layer 2">
    <g
       id="g890"
       transform="translate(-0.64082452,-2.6205404)">
      <g
         id="g348"
         style="opacity:1"
         transform="translate(-39.908114,-88.339745)">
        <path
           id="path54"
           style="fill:#fab413;fill-opacity:0.997841;stroke:none;stroke-width:0.475706"
           d="m 249.4668,217.55859 v 2.04297 2.04102 h 2.04297 2.04296 v 4.08594 4.08398 h 2.04102 2.04297 v 2.04297 2.04101 h 2.04297 2.04101 v 4.08399 4.08594 h 2.04297 2.04102 v 2.04101 2.04297 h 2.04297 2.04296 v 6.12695 6.12696 h -2.04296 -2.04297 v 4.08398 4.08399 h -2.04102 -2.04297 v 2.04296 2.04102 h -2.04101 -2.04297 v 4.08594 4.08398 h -2.04297 -2.04102 v 2.04297 2.04102 h -2.04296 -2.04297 v 4.08398 4.08594 h 4.08593 4.08399 v -2.04297 -2.04297 h 2.04297 2.04101 v -2.04102 -2.04296 h 2.04297 2.04102 v -4.08399 -4.08398 h 2.04297 2.04296 v -2.04297 -2.04297 h 2.04102 2.04297 v -4.08398 -4.08399 h 4.08398 4.08399 v 4.08399 4.08398 h 2.04297 2.04297 v 4.08594 4.08398 h 2.04101 2.04297 v 2.04297 2.04102 h 2.04297 2.04101 v 4.08398 4.08594 h 6.12696 6.12695 v -2.04297 -2.04297 h -2.04297 -2.04101 v -4.08398 -4.08399 h -2.04297 -2.04297 v -2.04297 -2.04101 h -2.04102 -2.04297 v -4.08594 -4.08398 h -2.04101 -2.04297 v -2.04102 -2.04297 h -2.04297 -2.04101 v -4.08398 -4.08594 h -2.04297 -2.04297 v -2.04102 -2.04296 h 2.04297 2.04297 v -2.04102 -2.04297 h 2.04101 2.04297 v -4.08398 -4.08594 h 2.04297 2.04101 v -2.04102 -2.04297 h 2.04297 2.04102 v -4.08398 -4.08398 h 2.04297 2.04297 v -2.04297 -2.04297 h 2.04101 2.04297 v -2.04102 -2.04297 h -6.12695 -6.12696 v 2.04297 2.04102 h -2.04101 -2.04297 v 4.08594 4.08398 h -2.04297 -2.04101 v 4.08398 4.08399 h -2.04297 -2.04297 v 2.04297 2.04297 h -4.08399 -4.08398 v -2.04297 -2.04297 h -2.04297 -2.04102 v -4.08399 -4.08398 h -2.04296 -2.04297 v -2.04297 -2.04101 h -2.04102 -2.04297 v -4.08594 -4.08399 h -6.12695 z"
           transform="matrix(0.26458333,0,0,0.26458333,41.529203,88.339744)" />
      </g>
      <g
         id="g345"
         style="opacity:1"
         transform="translate(-39.33313,-88.339745)">
        <path
           id="path52"
           style="fill:#fab413;fill-opacity:0.997841;stroke:none;stroke-width:0.475706"
           d="m 163.69336,217.55859 v 4.08399 4.08594 h 10.21094 10.21289 v 32.67578 32.67578 h 4.08398 4.08399 V 258.4043 225.72852 h 10.21093 10.21094 v -4.08594 -4.08399 h -24.50586 z"
           transform="matrix(0.26458333,0,0,0.26458333,41.529203,88.339744)" />
      </g>
      <g
         id="g331"
         transform="translate(-40.919384,-88.339745)"
         style="opacity:1">
        <path
           id="path50"
           style="fill:#fab413;fill-opacity:0.997841;stroke:none;stroke-width:0.475706"
           d="m 73.835938,217.55859 v 36.75977 36.76172 h 4.083984 4.083984 V 274.74219 258.4043 h 16.337891 16.337893 v 2.04101 2.04297 h 2.04297 2.04296 v 14.29492 14.29688 h 6.125 6.12696 v -2.04297 -2.04297 h -2.04102 -2.04297 V 272.69922 258.4043 h -2.04297 -2.04101 v -2.04297 -2.04297 h -2.04297 -2.04102 v -2.04102 -2.04296 h 2.04102 2.04297 v -2.04102 -2.04297 h 2.04101 2.04297 v -10.21094 -10.21093 h -2.04297 -2.04101 v -2.04297 -2.04297 h -4.08399 -4.08593 v -2.04102 -2.04297 H 94.257812 Z m 8.167968,8.16993 h 16.337891 16.337893 v 2.04101 2.04297 h 2.04297 2.04296 v 8.16797 8.16992 h -2.04296 -2.04297 v 2.04297 2.04102 H 98.341797 82.003906 v -12.25391 z"
           transform="matrix(0.26458333,0,0,0.26458333,41.529203,88.339744)" />
      </g>
      <g
         id="g342"
         style="opacity:1"
         transform="translate(-43.690571,-86.336378)">
        <path
           id="path44"
           style="fill:#fab413;fill-opacity:0.997841;stroke:none;stroke-width:0.475706"
           d="m 265.80469,99.109375 v 36.759765 36.75977 h 4.08593 4.08399 v -28.58985 -28.59179 h 2.04297 2.04101 v 4.08398 4.08594 h 2.04297 2.04102 v 4.08398 4.08399 h 2.04297 2.04297 v 2.04296 2.04102 h 2.04101 2.04297 v 4.08594 4.08398 h 2.04297 2.04101 v 4.08399 4.08398 h 2.04297 2.04102 v 2.04297 2.04297 h 2.04297 2.04297 v 4.08398 4.08399 h 2.04101 2.04297 v 4.08398 4.08399 h 6.12695 6.12696 V 135.86914 99.109375 h -4.08594 -4.08398 v 28.591795 28.5918 h -2.04102 -2.04297 v -4.08594 -4.08398 h -2.04297 -2.04101 v -4.08399 -4.08398 h -2.04297 -2.04297 v -2.04297 -2.04297 h -2.04102 -2.04297 v -4.08398 -4.08399 h -2.04101 -2.04297 v -4.08398 -4.08594 h -2.04297 -2.04101 v -2.04102 -2.04296 h -2.04297 -2.04297 v -4.08399 -4.08398 h -2.04102 -2.04297 v -4.08594 -4.083985 h -6.12695 z"
           transform="matrix(0.26458333,0,0,0.26458333,41.529203,88.339744)" />
      </g>
      <g
         id="g339"
         style="opacity:1"
         transform="translate(-42.57531,-86.336378)">
        <path
           id="path42"
           style="fill:#fab413;fill-opacity:0.997841;stroke:none;stroke-width:0.475706"
           d="m 175.94727,99.109375 v 36.759765 36.75977 h 4.08398 4.08594 v -16.33594 -16.33789 h 16.33789 16.33789 v -2.04297 -2.04297 h 2.04101 2.04297 v -2.04102 -2.04296 h 2.04102 2.04297 v -10.21094 -10.21094 h -2.04297 -2.04102 v -4.08398 -4.08594 h -4.08398 -4.08594 v -2.04102 -2.042965 h -18.37891 z m 8.16992,8.169925 h 14.29492 14.29492 v 2.04101 2.04297 h 2.04297 2.04297 v 8.16797 8.16992 H 214.75 212.70703 v 2.04102 2.04297 h -14.29492 -14.29492 v -12.25391 z"
           transform="matrix(0.26458333,0,0,0.26458333,41.529203,88.339744)" />
      </g>
      <g
         id="g335"
         style="opacity:1"
         transform="translate(-41.459919,-86.336378)">
        <path
           id="path40"
           style="fill:#fab413;fill-opacity:0.997841;stroke:none;stroke-width:0.475706"
           d="m 94.257812,99.109375 v 2.042965 2.04102 h -6.126953 -6.126953 v 2.04297 2.04297 h -2.041015 -2.042969 v 4.08398 4.08399 h -2.042969 -2.041015 v 4.08398 4.08594 h -2.042969 -2.041016 v 12.25195 12.25391 h 2.041016 2.042969 v 4.08398 4.08594 h 2.041015 2.042969 v 4.08398 4.08399 h 2.042969 2.041015 v 2.04297 2.04101 h 4.085938 4.083984 v 2.04297 2.04102 h 14.294922 14.29687 v -2.04102 -2.04297 h 4.08399 4.08398 v -2.04101 -2.04297 h 2.04297 2.04102 v -4.08399 -4.08398 h 2.04297 2.04297 v -4.08594 -4.08398 h 2.04101 2.04297 v -12.25391 -12.25195 h -2.04297 -2.04101 v -4.08594 -4.08398 h -2.04297 -2.04297 v -4.08399 -4.08398 h -4.08399 -4.08398 v -2.04297 -2.04297 h -4.08399 -4.08593 v -2.04102 -2.042965 h -10.21094 z m 0,8.169925 h 10.210938 10.21094 v 2.04101 2.04297 h 4.08593 4.08399 v 2.04102 2.04297 h 2.04101 2.04297 v 4.08398 4.08594 h 2.04297 2.04102 v 12.25195 12.25391 h -2.04102 -2.04297 v 4.08398 4.08594 h -2.04297 -2.04101 v 2.04101 2.04297 h -4.08399 -4.08593 v 2.04102 2.04297 H 104.46875 94.257812 v -2.04297 -2.04102 h -4.083984 -4.083984 v -2.04297 -2.04101 h -2.042969 -2.042969 v -4.08594 -4.08398 h -2.041015 -2.042969 v -12.25391 -12.25195 h 2.042969 2.041015 v -4.08594 -4.08398 h 2.042969 2.042969 v -2.04297 -2.04102 h 4.083984 4.083984 v -2.04297 z"
           transform="matrix(0.26458333,0,0,0.26458333,41.529203,88.339744)" />
      </g>
    </g>
  </g>
</svg>
