<?xml version="1.0" encoding="UTF-8" standalone="no"?>
<svg
   xmlns:dc="http://purl.org/dc/elements/1.1/"
   xmlns:cc="http://creativecommons.org/ns#"
   xmlns:rdf="http://www.w3.org/1999/02/22-rdf-syntax-ns#"
   xmlns:svg="http://www.w3.org/2000/svg"
   xmlns="http://www.w3.org/2000/svg"
   xmlns:sodipodi="http://sodipodi.sourceforge.net/DTD/sodipodi-0.dtd"
   xmlns:inkscape="http://www.inkscape.org/namespaces/inkscape"
   width="10cm"
   height="10cm"
   viewBox="0 0 100 100"
   version="1.1"
   id="svg8"
   inkscape:version="1.0.2 (e86c870879, 2021-01-15)"
   sodipodi:docname="openrtx_logo.svg"
   inkscape:export-filename="C:\Users\SP5WWP\Documents\M17_logo_simple_400.png"
   inkscape:export-xdpi="399.95294"
   inkscape:export-ydpi="399.95294">
  <defs
     id="defs2" />
  <sodipodi:namedview
     id="base"
     pagecolor="#ffffff"
     bordercolor="#666666"
     borderopacity="1.0"
     inkscape:pageopacity="0.0"
     inkscape:pageshadow="2"
     inkscape:zoom="1.4"
     inkscape:cx="271.2758"
     inkscape:cy="129.28173"
     inkscape:document-units="mm"
     inkscape:current-layer="layer1"
     showgrid="false"
     showguides="false"
     inkscape:guide-bbox="true"
     fit-margin-top="10"
     fit-margin-bottom="10"
     fit-margin-left="10"
     fit-margin-right="10"
     inkscape:window-width="1920"
     inkscape:window-height="1136"
     inkscape:window-x="0"
     inkscape:window-y="0"
     inkscape:window-maximized="1"
     inkscape:snap-global="true"
     inkscape:document-rotation="0"
     units="cm"
     borderlayer="true"
     inkscape:pagecheckerboard="true">
    <sodipodi:guide
       position="70.590358,88.660254"
       orientation="0,1"
       id="guide10"
       inkscape:locked="false"
       inkscape:label=""
       inkscape:color="rgb(0,0,255)" />
    <sodipodi:guide
       position="73.129418,28.660253"
       orientation="0,1"
       id="guide12"
       inkscape:locked="false"
       inkscape:label=""
       inkscape:color="rgb(0,0,255)" />
  </sodipodi:namedview>
  <metadata
     id="metadata5">
    <rdf:RDF>
      <cc:Work
         rdf:about="">
        <dc:format>image/svg+xml</dc:format>
        <dc:type
           rdf:resource="http://purl.org/dc/dcmitype/StillImage" />
        <dc:title />
      </cc:Work>
    </rdf:RDF>
  </metadata>
  <g
     inkscape:label="Layer 1"
     inkscape:groupmode="layer"
     id="layer1"
     transform="translate(-41.529203,-88.339744)"
     style="opacity:1">
    <path
       id="rect98"
       style="fill:#000000;fill-opacity:0.997841;stroke:none;stroke-width:0.475706"
       d="M 82.003906 225.72852 L 82.003906 237.98047 L 82.003906 250.23438 L 98.341797 250.23438 L 114.67969 250.23438 L 114.67969 248.19336 L 114.67969 246.15039 L 116.72266 246.15039 L 118.76562 246.15039 L 118.76562 237.98047 L 118.76562 229.8125 L 116.72266 229.8125 L 114.67969 229.8125 L 114.67969 227.76953 L 114.67969 225.72852 L 98.341797 225.72852 L 82.003906 225.72852 z "
       transform="matrix(0.26458333,0,0,0.26458333,41.529203,88.339744)" />
    <path
       id="path54"
       style="fill:#fab413;fill-opacity:0.997841;stroke:none;stroke-width:0.475706"
       d="M 249.4668 217.55859 L 249.4668 219.60156 L 249.4668 221.64258 L 251.50977 221.64258 L 253.55273 221.64258 L 253.55273 225.72852 L 253.55273 229.8125 L 255.59375 229.8125 L 257.63672 229.8125 L 257.63672 231.85547 L 257.63672 233.89648 L 259.67969 233.89648 L 261.7207 233.89648 L 261.7207 237.98047 L 261.7207 242.06641 L 263.76367 242.06641 L 265.80469 242.06641 L 265.80469 244.10742 L 265.80469 246.15039 L 267.84766 246.15039 L 269.89062 246.15039 L 269.89062 252.27734 L 269.89062 258.4043 L 267.84766 258.4043 L 265.80469 258.4043 L 265.80469 262.48828 L 265.80469 266.57227 L 263.76367 266.57227 L 261.7207 266.57227 L 261.7207 268.61523 L 261.7207 270.65625 L 259.67969 270.65625 L 257.63672 270.65625 L 257.63672 274.74219 L 257.63672 278.82617 L 255.59375 278.82617 L 253.55273 278.82617 L 253.55273 280.86914 L 253.55273 282.91016 L 251.50977 282.91016 L 249.4668 282.91016 L 249.4668 286.99414 L 249.4668 291.08008 L 253.55273 291.08008 L 257.63672 291.08008 L 257.63672 289.03711 L 257.63672 286.99414 L 259.67969 286.99414 L 261.7207 286.99414 L 261.7207 284.95312 L 261.7207 282.91016 L 263.76367 282.91016 L 265.80469 282.91016 L 265.80469 278.82617 L 265.80469 274.74219 L 267.84766 274.74219 L 269.89062 274.74219 L 269.89062 272.69922 L 269.89062 270.65625 L 271.93164 270.65625 L 273.97461 270.65625 L 273.97461 266.57227 L 273.97461 262.48828 L 278.05859 262.48828 L 282.14258 262.48828 L 282.14258 266.57227 L 282.14258 270.65625 L 284.18555 270.65625 L 286.22852 270.65625 L 286.22852 274.74219 L 286.22852 278.82617 L 288.26953 278.82617 L 290.3125 278.82617 L 290.3125 280.86914 L 290.3125 282.91016 L 292.35547 282.91016 L 294.39648 282.91016 L 294.39648 286.99414 L 294.39648 291.08008 L 300.52344 291.08008 L 306.65039 291.08008 L 306.65039 289.03711 L 306.65039 286.99414 L 304.60742 286.99414 L 302.56641 286.99414 L 302.56641 282.91016 L 302.56641 278.82617 L 300.52344 278.82617 L 298.48047 278.82617 L 298.48047 276.7832 L 298.48047 274.74219 L 296.43945 274.74219 L 294.39648 274.74219 L 294.39648 270.65625 L 294.39648 266.57227 L 292.35547 266.57227 L 290.3125 266.57227 L 290.3125 264.53125 L 290.3125 262.48828 L 288.26953 262.48828 L 286.22852 262.48828 L 286.22852 258.4043 L 286.22852 254.31836 L 284.18555 254.31836 L 282.14258 254.31836 L 282.14258 252.27734 L 282.14258 250.23438 L 284.18555 250.23438 L 286.22852 250.23438 L 286.22852 248.19336 L 286.22852 246.15039 L 288.26953 246.15039 L 290.3125 246.15039 L 290.3125 242.06641 L 290.3125 237.98047 L 292.35547 237.98047 L 294.39648 237.98047 L 294.39648 235.93945 L 294.39648 233.89648 L 296.43945 233.89648 L 298.48047 233.89648 L 298.48047 229.8125 L 298.48047 225.72852 L 300.52344 225.72852 L 302.56641 225.72852 L 302.56641 223.68555 L 302.56641 221.64258 L 304.60742 221.64258 L 306.65039 221.64258 L 306.65039 219.60156 L 306.65039 217.55859 L 300.52344 217.55859 L 294.39648 217.55859 L 294.39648 219.60156 L 294.39648 221.64258 L 292.35547 221.64258 L 290.3125 221.64258 L 290.3125 225.72852 L 290.3125 229.8125 L 288.26953 229.8125 L 286.22852 229.8125 L 286.22852 233.89648 L 286.22852 237.98047 L 284.18555 237.98047 L 282.14258 237.98047 L 282.14258 240.02344 L 282.14258 242.06641 L 278.05859 242.06641 L 273.97461 242.06641 L 273.97461 240.02344 L 273.97461 237.98047 L 271.93164 237.98047 L 269.89062 237.98047 L 269.89062 233.89648 L 269.89062 229.8125 L 267.84766 229.8125 L 265.80469 229.8125 L 265.80469 227.76953 L 265.80469 225.72852 L 263.76367 225.72852 L 261.7207 225.72852 L 261.7207 221.64258 L 261.7207 217.55859 L 255.59375 217.55859 L 249.4668 217.55859 z "
       transform="matrix(0.26458333,0,0,0.26458333,41.529203,88.339744)" />
    <path
       id="path52"
       style="fill:#fab413;fill-opacity:0.997841;stroke:none;stroke-width:0.475706"
       d="M 163.69336 217.55859 L 163.69336 221.64258 L 163.69336 225.72852 L 173.9043 225.72852 L 184.11719 225.72852 L 184.11719 258.4043 L 184.11719 291.08008 L 188.20117 291.08008 L 192.28516 291.08008 L 192.28516 258.4043 L 192.28516 225.72852 L 202.49609 225.72852 L 212.70703 225.72852 L 212.70703 221.64258 L 212.70703 217.55859 L 188.20117 217.55859 L 163.69336 217.55859 z "
       transform="matrix(0.26458333,0,0,0.26458333,41.529203,88.339744)" />
    <path
       id="path50"
       style="fill:#fab413;fill-opacity:0.997841;stroke:none;stroke-width:0.475706"
       d="M 73.835938 217.55859 L 73.835938 254.31836 L 73.835938 291.08008 L 77.919922 291.08008 L 82.003906 291.08008 L 82.003906 274.74219 L 82.003906 258.4043 L 98.341797 258.4043 L 114.67969 258.4043 L 114.67969 260.44531 L 114.67969 262.48828 L 116.72266 262.48828 L 118.76562 262.48828 L 118.76562 276.7832 L 118.76562 291.08008 L 124.89062 291.08008 L 131.01758 291.08008 L 131.01758 289.03711 L 131.01758 286.99414 L 128.97656 286.99414 L 126.93359 286.99414 L 126.93359 272.69922 L 126.93359 258.4043 L 124.89062 258.4043 L 122.84961 258.4043 L 122.84961 256.36133 L 122.84961 254.31836 L 120.80664 254.31836 L 118.76562 254.31836 L 118.76562 252.27734 L 118.76562 250.23438 L 120.80664 250.23438 L 122.84961 250.23438 L 122.84961 248.19336 L 122.84961 246.15039 L 124.89062 246.15039 L 126.93359 246.15039 L 126.93359 235.93945 L 126.93359 225.72852 L 124.89062 225.72852 L 122.84961 225.72852 L 122.84961 223.68555 L 122.84961 221.64258 L 118.76562 221.64258 L 114.67969 221.64258 L 114.67969 219.60156 L 114.67969 217.55859 L 94.257812 217.55859 L 73.835938 217.55859 z M 82.003906 225.72852 L 98.341797 225.72852 L 114.67969 225.72852 L 114.67969 227.76953 L 114.67969 229.8125 L 116.72266 229.8125 L 118.76562 229.8125 L 118.76562 237.98047 L 118.76562 246.15039 L 116.72266 246.15039 L 114.67969 246.15039 L 114.67969 248.19336 L 114.67969 250.23438 L 98.341797 250.23438 L 82.003906 250.23438 L 82.003906 237.98047 L 82.003906 225.72852 z "
       transform="matrix(0.26458333,0,0,0.26458333,41.529203,88.339744)" />
    <path
       id="path48"
       style="fill:#000000;fill-opacity:0.997841;stroke:none;stroke-width:0.475706"
       d="M 184.11719 107.2793 L 184.11719 119.53125 L 184.11719 131.78516 L 198.41211 131.78516 L 212.70703 131.78516 L 212.70703 129.74219 L 212.70703 127.70117 L 214.75 127.70117 L 216.79297 127.70117 L 216.79297 119.53125 L 216.79297 111.36328 L 214.75 111.36328 L 212.70703 111.36328 L 212.70703 109.32031 L 212.70703 107.2793 L 198.41211 107.2793 L 184.11719 107.2793 z "
       transform="matrix(0.26458333,0,0,0.26458333,41.529203,88.339744)" />
    <path
       id="path46"
       style="fill:#000000;fill-opacity:0.997841;stroke:none;stroke-width:0.475706"
       d="M 94.257812 107.2793 L 94.257812 109.32031 L 94.257812 111.36328 L 90.173828 111.36328 L 86.089844 111.36328 L 86.089844 113.4043 L 86.089844 115.44727 L 84.046875 115.44727 L 82.003906 115.44727 L 82.003906 119.53125 L 82.003906 123.61719 L 79.962891 123.61719 L 77.919922 123.61719 L 77.919922 135.86914 L 77.919922 148.12305 L 79.962891 148.12305 L 82.003906 148.12305 L 82.003906 152.20703 L 82.003906 156.29297 L 84.046875 156.29297 L 86.089844 156.29297 L 86.089844 158.33398 L 86.089844 160.37695 L 90.173828 160.37695 L 94.257812 160.37695 L 94.257812 162.41797 L 94.257812 164.46094 L 104.46875 164.46094 L 114.67969 164.46094 L 114.67969 162.41797 L 114.67969 160.37695 L 118.76562 160.37695 L 122.84961 160.37695 L 122.84961 158.33398 L 122.84961 156.29297 L 124.89062 156.29297 L 126.93359 156.29297 L 126.93359 152.20703 L 126.93359 148.12305 L 128.97656 148.12305 L 131.01758 148.12305 L 131.01758 135.86914 L 131.01758 123.61719 L 128.97656 123.61719 L 126.93359 123.61719 L 126.93359 119.53125 L 126.93359 115.44727 L 124.89062 115.44727 L 122.84961 115.44727 L 122.84961 113.4043 L 122.84961 111.36328 L 118.76562 111.36328 L 114.67969 111.36328 L 114.67969 109.32031 L 114.67969 107.2793 L 104.46875 107.2793 L 94.257812 107.2793 z "
       transform="matrix(0.26458333,0,0,0.26458333,41.529203,88.339744)" />
    <path
       id="path44"
       style="fill:#fab413;fill-opacity:0.997841;stroke:none;stroke-width:0.475706"
       d="M 265.80469 99.109375 L 265.80469 135.86914 L 265.80469 172.62891 L 269.89062 172.62891 L 273.97461 172.62891 L 273.97461 144.03906 L 273.97461 115.44727 L 276.01758 115.44727 L 278.05859 115.44727 L 278.05859 119.53125 L 278.05859 123.61719 L 280.10156 123.61719 L 282.14258 123.61719 L 282.14258 127.70117 L 282.14258 131.78516 L 284.18555 131.78516 L 286.22852 131.78516 L 286.22852 133.82812 L 286.22852 135.86914 L 288.26953 135.86914 L 290.3125 135.86914 L 290.3125 139.95508 L 290.3125 144.03906 L 292.35547 144.03906 L 294.39648 144.03906 L 294.39648 148.12305 L 294.39648 152.20703 L 296.43945 152.20703 L 298.48047 152.20703 L 298.48047 154.25 L 298.48047 156.29297 L 300.52344 156.29297 L 302.56641 156.29297 L 302.56641 160.37695 L 302.56641 164.46094 L 304.60742 164.46094 L 306.65039 164.46094 L 306.65039 168.54492 L 306.65039 172.62891 L 312.77734 172.62891 L 318.9043 172.62891 L 318.9043 135.86914 L 318.9043 99.109375 L 314.81836 99.109375 L 310.73438 99.109375 L 310.73438 127.70117 L 310.73438 156.29297 L 308.69336 156.29297 L 306.65039 156.29297 L 306.65039 152.20703 L 306.65039 148.12305 L 304.60742 148.12305 L 302.56641 148.12305 L 302.56641 144.03906 L 302.56641 139.95508 L 300.52344 139.95508 L 298.48047 139.95508 L 298.48047 137.91211 L 298.48047 135.86914 L 296.43945 135.86914 L 294.39648 135.86914 L 294.39648 131.78516 L 294.39648 127.70117 L 292.35547 127.70117 L 290.3125 127.70117 L 290.3125 123.61719 L 290.3125 119.53125 L 288.26953 119.53125 L 286.22852 119.53125 L 286.22852 117.49023 L 286.22852 115.44727 L 284.18555 115.44727 L 282.14258 115.44727 L 282.14258 111.36328 L 282.14258 107.2793 L 280.10156 107.2793 L 278.05859 107.2793 L 278.05859 103.19336 L 278.05859 99.109375 L 271.93164 99.109375 L 265.80469 99.109375 z "
       transform="matrix(0.26458333,0,0,0.26458333,41.529203,88.339744)" />
    <path
       id="path42"
       style="fill:#fab413;fill-opacity:0.997841;stroke:none;stroke-width:0.475706"
       d="M 175.94727 99.109375 L 175.94727 135.86914 L 175.94727 172.62891 L 180.03125 172.62891 L 184.11719 172.62891 L 184.11719 156.29297 L 184.11719 139.95508 L 200.45508 139.95508 L 216.79297 139.95508 L 216.79297 137.91211 L 216.79297 135.86914 L 218.83398 135.86914 L 220.87695 135.86914 L 220.87695 133.82812 L 220.87695 131.78516 L 222.91797 131.78516 L 224.96094 131.78516 L 224.96094 121.57422 L 224.96094 111.36328 L 222.91797 111.36328 L 220.87695 111.36328 L 220.87695 107.2793 L 220.87695 103.19336 L 216.79297 103.19336 L 212.70703 103.19336 L 212.70703 101.15234 L 212.70703 99.109375 L 194.32812 99.109375 L 175.94727 99.109375 z M 184.11719 107.2793 L 198.41211 107.2793 L 212.70703 107.2793 L 212.70703 109.32031 L 212.70703 111.36328 L 214.75 111.36328 L 216.79297 111.36328 L 216.79297 119.53125 L 216.79297 127.70117 L 214.75 127.70117 L 212.70703 127.70117 L 212.70703 129.74219 L 212.70703 131.78516 L 198.41211 131.78516 L 184.11719 131.78516 L 184.11719 119.53125 L 184.11719 107.2793 z "
       transform="matrix(0.26458333,0,0,0.26458333,41.529203,88.339744)" />
    <path
       id="path40"
       style="fill:#fab413;fill-opacity:0.997841;stroke:none;stroke-width:0.475706"
       d="M 94.257812 99.109375 L 94.257812 101.15234 L 94.257812 103.19336 L 88.130859 103.19336 L 82.003906 103.19336 L 82.003906 105.23633 L 82.003906 107.2793 L 79.962891 107.2793 L 77.919922 107.2793 L 77.919922 111.36328 L 77.919922 115.44727 L 75.876953 115.44727 L 73.835938 115.44727 L 73.835938 119.53125 L 73.835938 123.61719 L 71.792969 123.61719 L 69.751953 123.61719 L 69.751953 135.86914 L 69.751953 148.12305 L 71.792969 148.12305 L 73.835938 148.12305 L 73.835938 152.20703 L 73.835938 156.29297 L 75.876953 156.29297 L 77.919922 156.29297 L 77.919922 160.37695 L 77.919922 164.46094 L 79.962891 164.46094 L 82.003906 164.46094 L 82.003906 166.50391 L 82.003906 168.54492 L 86.089844 168.54492 L 90.173828 168.54492 L 90.173828 170.58789 L 90.173828 172.62891 L 104.46875 172.62891 L 118.76562 172.62891 L 118.76562 170.58789 L 118.76562 168.54492 L 122.84961 168.54492 L 126.93359 168.54492 L 126.93359 166.50391 L 126.93359 164.46094 L 128.97656 164.46094 L 131.01758 164.46094 L 131.01758 160.37695 L 131.01758 156.29297 L 133.06055 156.29297 L 135.10352 156.29297 L 135.10352 152.20703 L 135.10352 148.12305 L 137.14453 148.12305 L 139.1875 148.12305 L 139.1875 135.86914 L 139.1875 123.61719 L 137.14453 123.61719 L 135.10352 123.61719 L 135.10352 119.53125 L 135.10352 115.44727 L 133.06055 115.44727 L 131.01758 115.44727 L 131.01758 111.36328 L 131.01758 107.2793 L 126.93359 107.2793 L 122.84961 107.2793 L 122.84961 105.23633 L 122.84961 103.19336 L 118.76562 103.19336 L 114.67969 103.19336 L 114.67969 101.15234 L 114.67969 99.109375 L 104.46875 99.109375 L 94.257812 99.109375 z M 94.257812 107.2793 L 104.46875 107.2793 L 114.67969 107.2793 L 114.67969 109.32031 L 114.67969 111.36328 L 118.76562 111.36328 L 122.84961 111.36328 L 122.84961 113.4043 L 122.84961 115.44727 L 124.89062 115.44727 L 126.93359 115.44727 L 126.93359 119.53125 L 126.93359 123.61719 L 128.97656 123.61719 L 131.01758 123.61719 L 131.01758 135.86914 L 131.01758 148.12305 L 128.97656 148.12305 L 126.93359 148.12305 L 126.93359 152.20703 L 126.93359 156.29297 L 124.89062 156.29297 L 122.84961 156.29297 L 122.84961 158.33398 L 122.84961 160.37695 L 118.76562 160.37695 L 114.67969 160.37695 L 114.67969 162.41797 L 114.67969 164.46094 L 104.46875 164.46094 L 94.257812 164.46094 L 94.257812 162.41797 L 94.257812 160.37695 L 90.173828 160.37695 L 86.089844 160.37695 L 86.089844 158.33398 L 86.089844 156.29297 L 84.046875 156.29297 L 82.003906 156.29297 L 82.003906 152.20703 L 82.003906 148.12305 L 79.962891 148.12305 L 77.919922 148.12305 L 77.919922 135.86914 L 77.919922 123.61719 L 79.962891 123.61719 L 82.003906 123.61719 L 82.003906 119.53125 L 82.003906 115.44727 L 84.046875 115.44727 L 86.089844 115.44727 L 86.089844 113.4043 L 86.089844 111.36328 L 90.173828 111.36328 L 94.257812 111.36328 L 94.257812 109.32031 L 94.257812 107.2793 z "
       transform="matrix(0.26458333,0,0,0.26458333,41.529203,88.339744)" />
    <path
       id="path38"
       style="fill:#000000;fill-opacity:0.997841;stroke:none;stroke-width:0.475706"
       d="M 0.41015625 1.9003906 L 0.41015625 381.43359 L 381.50391 381.43359 L 381.50391 1.9003906 L 0.41015625 1.9003906 z M 94.257812 99.109375 L 104.46875 99.109375 L 114.67969 99.109375 L 114.67969 101.15234 L 114.67969 103.19336 L 118.76562 103.19336 L 122.84961 103.19336 L 122.84961 105.23633 L 122.84961 107.2793 L 126.93359 107.2793 L 131.01758 107.2793 L 131.01758 111.36328 L 131.01758 115.44727 L 133.06055 115.44727 L 135.10352 115.44727 L 135.10352 119.53125 L 135.10352 123.61719 L 137.14453 123.61719 L 139.1875 123.61719 L 139.1875 135.86914 L 139.1875 148.12305 L 137.14453 148.12305 L 135.10352 148.12305 L 135.10352 152.20703 L 135.10352 156.29297 L 133.06055 156.29297 L 131.01758 156.29297 L 131.01758 160.37695 L 131.01758 164.46094 L 128.97656 164.46094 L 126.93359 164.46094 L 126.93359 166.50391 L 126.93359 168.54492 L 122.84961 168.54492 L 118.76562 168.54492 L 118.76562 170.58789 L 118.76562 172.62891 L 104.46875 172.62891 L 90.173828 172.62891 L 90.173828 170.58789 L 90.173828 168.54492 L 86.089844 168.54492 L 82.003906 168.54492 L 82.003906 166.50391 L 82.003906 164.46094 L 79.962891 164.46094 L 77.919922 164.46094 L 77.919922 160.37695 L 77.919922 156.29297 L 75.876953 156.29297 L 73.835938 156.29297 L 73.835938 152.20703 L 73.835938 148.12305 L 71.792969 148.12305 L 69.751953 148.12305 L 69.751953 135.86914 L 69.751953 123.61719 L 71.792969 123.61719 L 73.835938 123.61719 L 73.835938 119.53125 L 73.835938 115.44727 L 75.876953 115.44727 L 77.919922 115.44727 L 77.919922 111.36328 L 77.919922 107.2793 L 79.962891 107.2793 L 82.003906 107.2793 L 82.003906 105.23633 L 82.003906 103.19336 L 88.130859 103.19336 L 94.257812 103.19336 L 94.257812 101.15234 L 94.257812 99.109375 z M 175.94727 99.109375 L 194.32812 99.109375 L 212.70703 99.109375 L 212.70703 101.15234 L 212.70703 103.19336 L 216.79297 103.19336 L 220.87695 103.19336 L 220.87695 107.2793 L 220.87695 111.36328 L 222.91797 111.36328 L 224.96094 111.36328 L 224.96094 121.57422 L 224.96094 131.78516 L 222.91797 131.78516 L 220.87695 131.78516 L 220.87695 133.82812 L 220.87695 135.86914 L 218.83398 135.86914 L 216.79297 135.86914 L 216.79297 137.91211 L 216.79297 139.95508 L 200.45508 139.95508 L 184.11719 139.95508 L 184.11719 156.29297 L 184.11719 172.62891 L 180.03125 172.62891 L 175.94727 172.62891 L 175.94727 135.86914 L 175.94727 99.109375 z M 265.80469 99.109375 L 271.93164 99.109375 L 278.05859 99.109375 L 278.05859 103.19336 L 278.05859 107.2793 L 280.10156 107.2793 L 282.14258 107.2793 L 282.14258 111.36328 L 282.14258 115.44727 L 284.18555 115.44727 L 286.22852 115.44727 L 286.22852 117.49023 L 286.22852 119.53125 L 288.26953 119.53125 L 290.3125 119.53125 L 290.3125 123.61719 L 290.3125 127.70117 L 292.35547 127.70117 L 294.39648 127.70117 L 294.39648 131.78516 L 294.39648 135.86914 L 296.43945 135.86914 L 298.48047 135.86914 L 298.48047 137.91211 L 298.48047 139.95508 L 300.52344 139.95508 L 302.56641 139.95508 L 302.56641 144.03906 L 302.56641 148.12305 L 304.60742 148.12305 L 306.65039 148.12305 L 306.65039 152.20703 L 306.65039 156.29297 L 308.69336 156.29297 L 310.73438 156.29297 L 310.73438 127.70117 L 310.73438 99.109375 L 314.81836 99.109375 L 318.9043 99.109375 L 318.9043 135.86914 L 318.9043 172.62891 L 312.77734 172.62891 L 306.65039 172.62891 L 306.65039 168.54492 L 306.65039 164.46094 L 304.60742 164.46094 L 302.56641 164.46094 L 302.56641 160.37695 L 302.56641 156.29297 L 300.52344 156.29297 L 298.48047 156.29297 L 298.48047 154.25 L 298.48047 152.20703 L 296.43945 152.20703 L 294.39648 152.20703 L 294.39648 148.12305 L 294.39648 144.03906 L 292.35547 144.03906 L 290.3125 144.03906 L 290.3125 139.95508 L 290.3125 135.86914 L 288.26953 135.86914 L 286.22852 135.86914 L 286.22852 133.82812 L 286.22852 131.78516 L 284.18555 131.78516 L 282.14258 131.78516 L 282.14258 127.70117 L 282.14258 123.61719 L 280.10156 123.61719 L 278.05859 123.61719 L 278.05859 119.53125 L 278.05859 115.44727 L 276.01758 115.44727 L 273.97461 115.44727 L 273.97461 144.03906 L 273.97461 172.62891 L 269.89062 172.62891 L 265.80469 172.62891 L 265.80469 135.86914 L 265.80469 99.109375 z M 73.835938 217.55859 L 94.257812 217.55859 L 114.67969 217.55859 L 114.67969 219.60156 L 114.67969 221.64258 L 118.76562 221.64258 L 122.84961 221.64258 L 122.84961 223.68555 L 122.84961 225.72852 L 124.89062 225.72852 L 126.93359 225.72852 L 126.93359 235.93945 L 126.93359 246.15039 L 124.89062 246.15039 L 122.84961 246.15039 L 122.84961 248.19336 L 122.84961 250.23438 L 120.80664 250.23438 L 118.76562 250.23438 L 118.76562 252.27734 L 118.76562 254.31836 L 120.80664 254.31836 L 122.84961 254.31836 L 122.84961 256.36133 L 122.84961 258.4043 L 124.89062 258.4043 L 126.93359 258.4043 L 126.93359 272.69922 L 126.93359 286.99414 L 128.97656 286.99414 L 131.01758 286.99414 L 131.01758 289.03711 L 131.01758 291.08008 L 124.89062 291.08008 L 118.76562 291.08008 L 118.76562 276.7832 L 118.76562 262.48828 L 116.72266 262.48828 L 114.67969 262.48828 L 114.67969 260.44531 L 114.67969 258.4043 L 98.341797 258.4043 L 82.003906 258.4043 L 82.003906 274.74219 L 82.003906 291.08008 L 77.919922 291.08008 L 73.835938 291.08008 L 73.835938 254.31836 L 73.835938 217.55859 z M 163.69336 217.55859 L 188.20117 217.55859 L 212.70703 217.55859 L 212.70703 221.64258 L 212.70703 225.72852 L 202.49609 225.72852 L 192.28516 225.72852 L 192.28516 258.4043 L 192.28516 291.08008 L 188.20117 291.08008 L 184.11719 291.08008 L 184.11719 258.4043 L 184.11719 225.72852 L 173.9043 225.72852 L 163.69336 225.72852 L 163.69336 221.64258 L 163.69336 217.55859 z M 249.4668 217.55859 L 255.59375 217.55859 L 261.7207 217.55859 L 261.7207 221.64258 L 261.7207 225.72852 L 263.76367 225.72852 L 265.80469 225.72852 L 265.80469 227.76953 L 265.80469 229.8125 L 267.84766 229.8125 L 269.89062 229.8125 L 269.89062 233.89648 L 269.89062 237.98047 L 271.93164 237.98047 L 273.97461 237.98047 L 273.97461 240.02344 L 273.97461 242.06641 L 278.05859 242.06641 L 282.14258 242.06641 L 282.14258 240.02344 L 282.14258 237.98047 L 284.18555 237.98047 L 286.22852 237.98047 L 286.22852 233.89648 L 286.22852 229.8125 L 288.26953 229.8125 L 290.3125 229.8125 L 290.3125 225.72852 L 290.3125 221.64258 L 292.35547 221.64258 L 294.39648 221.64258 L 294.39648 219.60156 L 294.39648 217.55859 L 300.52344 217.55859 L 306.65039 217.55859 L 306.65039 219.60156 L 306.65039 221.64258 L 304.60742 221.64258 L 302.56641 221.64258 L 302.56641 223.68555 L 302.56641 225.72852 L 300.52344 225.72852 L 298.48047 225.72852 L 298.48047 229.8125 L 298.48047 233.89648 L 296.43945 233.89648 L 294.39648 233.89648 L 294.39648 235.93945 L 294.39648 237.98047 L 292.35547 237.98047 L 290.3125 237.98047 L 290.3125 242.06641 L 290.3125 246.15039 L 288.26953 246.15039 L 286.22852 246.15039 L 286.22852 248.19336 L 286.22852 250.23438 L 284.18555 250.23438 L 282.14258 250.23438 L 282.14258 252.27734 L 282.14258 254.31836 L 284.18555 254.31836 L 286.22852 254.31836 L 286.22852 258.4043 L 286.22852 262.48828 L 288.26953 262.48828 L 290.3125 262.48828 L 290.3125 264.53125 L 290.3125 266.57227 L 292.35547 266.57227 L 294.39648 266.57227 L 294.39648 270.65625 L 294.39648 274.74219 L 296.43945 274.74219 L 298.48047 274.74219 L 298.48047 276.7832 L 298.48047 278.82617 L 300.52344 278.82617 L 302.56641 278.82617 L 302.56641 282.91016 L 302.56641 286.99414 L 304.60742 286.99414 L 306.65039 286.99414 L 306.65039 289.03711 L 306.65039 291.08008 L 300.52344 291.08008 L 294.39648 291.08008 L 294.39648 286.99414 L 294.39648 282.91016 L 292.35547 282.91016 L 290.3125 282.91016 L 290.3125 280.86914 L 290.3125 278.82617 L 288.26953 278.82617 L 286.22852 278.82617 L 286.22852 274.74219 L 286.22852 270.65625 L 284.18555 270.65625 L 282.14258 270.65625 L 282.14258 266.57227 L 282.14258 262.48828 L 278.05859 262.48828 L 273.97461 262.48828 L 273.97461 266.57227 L 273.97461 270.65625 L 271.93164 270.65625 L 269.89062 270.65625 L 269.89062 272.69922 L 269.89062 274.74219 L 267.84766 274.74219 L 265.80469 274.74219 L 265.80469 278.82617 L 265.80469 282.91016 L 263.76367 282.91016 L 261.7207 282.91016 L 261.7207 284.95312 L 261.7207 286.99414 L 259.67969 286.99414 L 257.63672 286.99414 L 257.63672 289.03711 L 257.63672 291.08008 L 253.55273 291.08008 L 249.4668 291.08008 L 249.4668 286.99414 L 249.4668 282.91016 L 251.50977 282.91016 L 253.55273 282.91016 L 253.55273 280.86914 L 253.55273 278.82617 L 255.59375 278.82617 L 257.63672 278.82617 L 257.63672 274.74219 L 257.63672 270.65625 L 259.67969 270.65625 L 261.7207 270.65625 L 261.7207 268.61523 L 261.7207 266.57227 L 263.76367 266.57227 L 265.80469 266.57227 L 265.80469 262.48828 L 265.80469 258.4043 L 267.84766 258.4043 L 269.89062 258.4043 L 269.89062 252.27734 L 269.89062 246.15039 L 267.84766 246.15039 L 265.80469 246.15039 L 265.80469 244.10742 L 265.80469 242.06641 L 263.76367 242.06641 L 261.7207 242.06641 L 261.7207 237.98047 L 261.7207 233.89648 L 259.67969 233.89648 L 257.63672 233.89648 L 257.63672 231.85547 L 257.63672 229.8125 L 255.59375 229.8125 L 253.55273 229.8125 L 253.55273 225.72852 L 253.55273 221.64258 L 251.50977 221.64258 L 249.4668 221.64258 L 249.4668 219.60156 L 249.4668 217.55859 z "
       transform="matrix(0.26458333,0,0,0.26458333,41.529203,88.339744)" />
  </g>
</svg>
