<?xml version="1.0" encoding="UTF-8"?>
<!DOCTYPE svg PUBLIC "-//W3C//DTD SVG 1.1//EN" "http://www.w3.org/Graphics/SVG/1.1/DTD/svg11.dtd">
<svg xmlns="http://www.w3.org/2000/svg" xmlns:xlink="http://www.w3.org/1999/xlink" version="1.1" width="401px" height="402px" viewBox="-0.5 -0.5 401 402"><defs/><g><rect x="160" y="160" width="80" height="80" fill="none" stroke="#f0f0f0" pointer-events="all"/><g fill="#f0f0f0" font-family="Helvetica" text-anchor="middle" font-size="18px"><text x="199.5" y="196.5">UI </text><text x="199.5" y="218.5">Thread</text></g><rect x="320" y="320" width="80" height="80" fill="none" stroke="#f0f0f0" pointer-events="all"/><g fill="#f0f0f0" font-family="Helvetica" text-anchor="middle" font-size="18px"><text x="359.5" y="356.5">GPS </text><text x="359.5" y="378.5">Thread</text></g><rect x="320" y="0" width="80" height="80" fill="none" stroke="#f0f0f0" pointer-events="all"/><g fill="#f0f0f0" font-family="Helvetica" text-anchor="middle" font-size="18px"><text x="359.5" y="36.5">RTX</text><text x="359.5" y="58.5">Thread</text></g><rect x="0" y="0" width="80" height="80" fill="none" stroke="#f0f0f0" pointer-events="all"/><g fill="#f0f0f0" font-family="Helvetica" text-anchor="middle" font-size="18px"><text x="39.5" y="36.5">KBD </text><text x="39.5" y="58.5">Thread</text></g><rect x="0" y="320" width="80" height="80" fill="none" stroke="#f0f0f0" pointer-events="all"/><g fill="#f0f0f0" font-family="Helvetica" text-anchor="middle" font-size="18px"><text x="39.5" y="356.5">DEV</text><text x="39.5" y="378.5">Thread</text></g><ellipse cx="200" cy="360" rx="40" ry="40" fill="none" stroke="#f0f0f0" pointer-events="all"/><g fill="#f0f0f0" font-family="Helvetica" text-anchor="middle" font-size="18px"><text x="199.5" y="367.5">State</text></g><ellipse cx="40" cy="200" rx="40" ry="40" fill="none" stroke="#f0f0f0" pointer-events="all"/><g fill="#f0f0f0" font-family="Helvetica" text-anchor="middle" font-size="18px"><text x="39.5" y="196.5">Event</text><text x="39.5" y="218.5">Queue</text></g><path d="M 40 80 L 40 153.63" fill="none" stroke="#f0f0f0" stroke-miterlimit="10" pointer-events="stroke"/><path d="M 40 158.88 L 36.5 151.88 L 40 153.63 L 43.5 151.88 Z" fill="#f0f0f0" stroke="#f0f0f0" stroke-miterlimit="10" pointer-events="all"/><path d="M 40 320 L 40 246.37" fill="none" stroke="#f0f0f0" stroke-miterlimit="10" pointer-events="stroke"/><path d="M 40 241.12 L 43.5 248.12 L 40 246.37 L 36.5 248.12 Z" fill="#f0f0f0" stroke="#f0f0f0" stroke-miterlimit="10" pointer-events="all"/><path d="M 80 200 L 153.63 200" fill="none" stroke="#f0f0f0" stroke-miterlimit="10" pointer-events="stroke"/><path d="M 158.88 200 L 151.88 203.5 L 153.63 200 L 151.88 196.5 Z" fill="#f0f0f0" stroke="#f0f0f0" stroke-miterlimit="10" pointer-events="all"/><ellipse cx="360" cy="200" rx="40" ry="40" fill="none" stroke="#f0f0f0" pointer-events="all"/><g fill="#f0f0f0" font-family="Helvetica" text-anchor="middle" font-size="18px"><text x="359.5" y="196.5">RTX</text><text x="359.5" y="218.5">Config</text></g><path d="M 240 200 L 313.63 200" fill="none" stroke="#f0f0f0" stroke-miterlimit="10" pointer-events="stroke"/><path d="M 318.88 200 L 311.88 203.5 L 313.63 200 L 311.88 196.5 Z" fill="#f0f0f0" stroke="#f0f0f0" stroke-miterlimit="10" pointer-events="all"/><path d="M 360 160 L 360 86.37" fill="none" stroke="#f0f0f0" stroke-miterlimit="10" pointer-events="stroke"/><path d="M 360 81.12 L 363.5 88.12 L 360 86.37 L 356.5 88.12 Z" fill="#f0f0f0" stroke="#f0f0f0" stroke-miterlimit="10" pointer-events="all"/><path d="M 200 246.37 L 200 313.63" fill="none" stroke="#f0f0f0" stroke-miterlimit="10" pointer-events="stroke"/><path d="M 200 241.12 L 203.5 248.12 L 200 246.37 L 196.5 248.12 Z" fill="#f0f0f0" stroke="#f0f0f0" stroke-miterlimit="10" pointer-events="all"/><path d="M 200 318.88 L 196.5 311.88 L 200 313.63 L 203.5 311.88 Z" fill="#f0f0f0" stroke="#f0f0f0" stroke-miterlimit="10" pointer-events="all"/><path d="M 313.63 360 L 246.37 360" fill="none" stroke="#f0f0f0" stroke-miterlimit="10" pointer-events="stroke"/><path d="M 318.88 360 L 311.88 363.5 L 313.63 360 L 311.88 356.5 Z" fill="#f0f0f0" stroke="#f0f0f0" stroke-miterlimit="10" pointer-events="all"/><path d="M 241.12 360 L 248.12 356.5 L 246.37 360 L 248.12 363.5 Z" fill="#f0f0f0" stroke="#f0f0f0" stroke-miterlimit="10" pointer-events="all"/><path d="M 80 360 L 153.63 360" fill="none" stroke="#f0f0f0" stroke-miterlimit="10" pointer-events="stroke"/><path d="M 158.88 360 L 151.88 363.5 L 153.63 360 L 151.88 356.5 Z" fill="#f0f0f0" stroke="#f0f0f0" stroke-miterlimit="10" pointer-events="all"/></g></svg>